<svg width="104" height="104" viewBox="0 0 104 104" fill="none" xmlns="http://www.w3.org/2000/svg">
<rect width="104" height="104" rx="52" fill="white" fill-opacity="0.3"/>
<rect x="10.5" y="10.5" width="83" height="83" rx="41.5" fill="#C6E0D1"/>
<rect x="10.5" y="10.5" width="83" height="83" rx="41.5" stroke="#E0D8F3"/>
<path d="M67.75 52C67.7509 52.3819 67.653 52.7577 67.4657 53.0906C67.2784 53.4235 67.0082 53.7023 66.6812 53.8998L46.42 66.2945C46.0784 66.5037 45.6872 66.6179 45.2867 66.6253C44.8862 66.6327 44.491 66.5331 44.1419 66.3367C43.7961 66.1434 43.508 65.8614 43.3074 65.5198C43.1067 65.1783 43.0006 64.7894 43 64.3932V39.6067C43.0006 39.2105 43.1067 38.8217 43.3074 38.4801C43.508 38.1385 43.7961 37.8566 44.1419 37.6633C44.491 37.4669 44.8862 37.3672 45.2867 37.3747C45.6872 37.3821 46.0784 37.4963 46.42 37.7054L66.6812 50.1001C67.0082 50.2977 67.2784 50.5764 67.4657 50.9094C67.653 51.2423 67.7509 51.618 67.75 52Z" fill="#0D5229"/>
</svg>
