<svg width="40" height="44" viewBox="0 0 40 44" fill="none" xmlns="http://www.w3.org/2000/svg">
<path d="M4 40C2.9 40 1.95833 39.6083 1.175 38.825C0.391667 38.0417 0 37.1 0 36V8C0 6.9 0.391667 5.95833 1.175 5.175C1.95833 4.39167 2.9 4 4 4H12.4C12.8333 2.8 13.5583 1.83333 14.575 1.1C15.5917 0.366667 16.7333 0 18 0C19.2667 0 20.4083 0.366667 21.425 1.1C22.4417 1.83333 23.1667 2.8 23.6 4H32C33.1 4 34.0417 4.39167 34.825 5.175C35.6083 5.95833 36 6.9 36 8V21.4C35.3667 21.1 34.7167 20.8417 34.05 20.625C33.3833 20.4083 32.7 20.25 32 20.15V8H4V36H16.1C16.2 36.7333 16.3583 37.4333 16.575 38.1C16.7917 38.7667 17.05 39.4 17.35 40H4ZM4 34V36V8V20.15V20V34ZM8 32H16.15C16.25 31.3 16.4083 30.6167 16.625 29.95C16.8417 29.2833 17.0833 28.6333 17.35 28H8V32ZM8 24H20.2C21.2667 23 22.4583 22.1667 23.775 21.5C25.0917 20.8333 26.5 20.3833 28 20.15V20H8V24ZM8 16H28V12H8V16ZM18 6.5C18.4333 6.5 18.7917 6.35833 19.075 6.075C19.3583 5.79167 19.5 5.43333 19.5 5C19.5 4.56667 19.3583 4.20833 19.075 3.925C18.7917 3.64167 18.4333 3.5 18 3.5C17.5667 3.5 17.2083 3.64167 16.925 3.925C16.6417 4.20833 16.5 4.56667 16.5 5C16.5 5.43333 16.6417 5.79167 16.925 6.075C17.2083 6.35833 17.5667 6.5 18 6.5ZM30 44C27.2333 44 24.875 43.025 22.925 41.075C20.975 39.125 20 36.7667 20 34C20 31.2333 20.975 28.875 22.925 26.925C24.875 24.975 27.2333 24 30 24C32.7667 24 35.125 24.975 37.075 26.925C39.025 28.875 40 31.2333 40 34C40 36.7667 39.025 39.125 37.075 41.075C35.125 43.025 32.7667 44 30 44ZM30 41C31.8 41 33.3583 40.4 34.675 39.2C35.9917 38 36.75 36.5167 36.95 34.75C36.7833 34.8167 36.625 34.875 36.475 34.925C36.325 34.975 36.1667 35 36 35H34C33.4333 35 32.9583 34.8083 32.575 34.425C32.1917 34.0417 32 33.5667 32 33V32H28V30C28 29.4333 28.1917 28.9583 28.575 28.575C28.9583 28.1917 29.4333 28 30 28H31C31 27.8333 31.0167 27.675 31.05 27.525C31.0833 27.375 31.1333 27.2333 31.2 27.1C31 27.0667 30.8 27.0417 30.6 27.025C30.4 27.0083 30.2 27 30 27C28.0667 27 26.4167 27.6833 25.05 29.05C23.6833 30.4167 23 32.0667 23 34H27C28.1 34 29.0417 34.3917 29.825 35.175C30.6083 35.9583 31 36.9 31 38V39H28V40.7C28.3333 40.8 28.6583 40.875 28.975 40.925C29.2917 40.975 29.6333 41 30 41Z" fill="#0D5229"/>
</svg>
