<svg width="45" height="36" viewBox="0 0 45 36" fill="none" xmlns="http://www.w3.org/2000/svg">
<path d="M43.5 33H40.5V12C40.8978 12 41.2794 11.842 41.5607 11.5607C41.842 11.2794 42 10.8978 42 10.5C42 10.1022 41.842 9.72064 41.5607 9.43934C41.2794 9.15804 40.8978 9 40.5 9H31.5V3C31.8978 3 32.2794 2.84196 32.5607 2.56066C32.842 2.27936 33 1.89782 33 1.5C33 1.10218 32.842 0.720645 32.5607 0.43934C32.2794 0.158036 31.8978 0 31.5 0H4.5C4.10218 0 3.72064 0.158036 3.43934 0.43934C3.15804 0.720645 3 1.10218 3 1.5C3 1.89782 3.15804 2.27936 3.43934 2.56066C3.72064 2.84196 4.10218 3 4.5 3V33H1.5C1.10218 33 0.720644 33.158 0.43934 33.4393C0.158035 33.7206 0 34.1022 0 34.5C0 34.8978 0.158035 35.2794 0.43934 35.5607C0.720644 35.842 1.10218 36 1.5 36H43.5C43.8978 36 44.2794 35.842 44.5607 35.5607C44.842 35.2794 45 34.8978 45 34.5C45 34.1022 44.842 33.7206 44.5607 33.4393C44.2794 33.158 43.8978 33 43.5 33ZM37.5 12V33H31.5V12H37.5ZM7.5 3H28.5V33H24V24C24 23.6022 23.842 23.2206 23.5607 22.9393C23.2794 22.658 22.8978 22.5 22.5 22.5H13.5C13.1022 22.5 12.7206 22.658 12.4393 22.9393C12.158 23.2206 12 23.6022 12 24V33H7.5V3ZM21 33H15V25.5H21V33ZM10.5 9C10.5 8.60218 10.658 8.22064 10.9393 7.93934C11.2206 7.65804 11.6022 7.5 12 7.5H15C15.3978 7.5 15.7794 7.65804 16.0607 7.93934C16.342 8.22064 16.5 8.60218 16.5 9C16.5 9.39782 16.342 9.77936 16.0607 10.0607C15.7794 10.342 15.3978 10.5 15 10.5H12C11.6022 10.5 11.2206 10.342 10.9393 10.0607C10.658 9.77936 10.5 9.39782 10.5 9ZM19.5 9C19.5 8.60218 19.658 8.22064 19.9393 7.93934C20.2206 7.65804 20.6022 7.5 21 7.5H24C24.3978 7.5 24.7794 7.65804 25.0607 7.93934C25.342 8.22064 25.5 8.60218 25.5 9C25.5 9.39782 25.342 9.77936 25.0607 10.0607C24.7794 10.342 24.3978 10.5 24 10.5H21C20.6022 10.5 20.2206 10.342 19.9393 10.0607C19.658 9.77936 19.5 9.39782 19.5 9ZM10.5 16.5C10.5 16.1022 10.658 15.7206 10.9393 15.4393C11.2206 15.158 11.6022 15 12 15H15C15.3978 15 15.7794 15.158 16.0607 15.4393C16.342 15.7206 16.5 16.1022 16.5 16.5C16.5 16.8978 16.342 17.2794 16.0607 17.5607C15.7794 17.842 15.3978 18 15 18H12C11.6022 18 11.2206 17.842 10.9393 17.5607C10.658 17.2794 10.5 16.8978 10.5 16.5ZM19.5 16.5C19.5 16.1022 19.658 15.7206 19.9393 15.4393C20.2206 15.158 20.6022 15 21 15H24C24.3978 15 24.7794 15.158 25.0607 15.4393C25.342 15.7206 25.5 16.1022 25.5 16.5C25.5 16.8978 25.342 17.2794 25.0607 17.5607C24.7794 17.842 24.3978 18 24 18H21C20.6022 18 20.2206 17.842 19.9393 17.5607C19.658 17.2794 19.5 16.8978 19.5 16.5Z" fill="#0D5229"/>
</svg>
