<svg width="36" height="38" viewBox="0 0 36 38" fill="none" xmlns="http://www.w3.org/2000/svg">
<path d="M33 0H3C2.20435 0 1.44129 0.31607 0.87868 0.87868C0.31607 1.44129 0 2.20435 0 3V13.5C0 23.385 4.785 29.3756 8.79938 32.6606C13.1231 36.1969 17.4244 37.3969 17.6119 37.4475C17.8697 37.5176 18.1416 37.5176 18.3994 37.4475C18.5869 37.3969 22.8825 36.1969 27.2119 32.6606C31.215 29.3756 36 23.385 36 13.5V3C36 2.20435 35.6839 1.44129 35.1213 0.87868C34.5587 0.31607 33.7956 0 33 0ZM33 13.5C33 20.4506 30.4387 26.0925 25.3875 30.2662C23.1886 32.077 20.6879 33.486 18 34.4287C15.3473 33.5024 12.8774 32.1184 10.7025 30.3394C5.59125 26.1581 3 20.4937 3 13.5V3H33V13.5ZM9.43875 19.0613C9.15729 18.7798 8.99917 18.398 8.99917 18C8.99917 17.602 9.15729 17.2202 9.43875 16.9387C9.72021 16.6573 10.102 16.4992 10.5 16.4992C10.898 16.4992 11.2798 16.6573 11.5613 16.9387L15 20.3794L24.4387 10.9387C24.5781 10.7994 24.7436 10.6888 24.9257 10.6134C25.1077 10.538 25.3029 10.4992 25.5 10.4992C25.6971 10.4992 25.8923 10.538 26.0743 10.6134C26.2564 10.6888 26.4219 10.7994 26.5613 10.9387C26.7006 11.0781 26.8112 11.2436 26.8866 11.4257C26.962 11.6077 27.0008 11.8029 27.0008 12C27.0008 12.1971 26.962 12.3923 26.8866 12.5743C26.8112 12.7564 26.7006 12.9219 26.5613 13.0613L16.0613 23.5613C15.9219 23.7007 15.7565 23.8114 15.5744 23.8868C15.3923 23.9623 15.1971 24.0012 15 24.0012C14.8029 24.0012 14.6077 23.9623 14.4256 23.8868C14.2435 23.8114 14.0781 23.7007 13.9387 23.5613L9.43875 19.0613Z" fill="#0D5229"/>
</svg>
