<svg width="35" height="36" viewBox="0 0 35 36" fill="none" xmlns="http://www.w3.org/2000/svg">
<path d="M31.5 4.5H27V1.5C27 1.10218 26.842 0.720645 26.5607 0.43934C26.2794 0.158036 25.8978 0 25.5 0H-1.5C-1.89782 0 -2.27936 0.158036 -2.56066 0.43934C-2.84196 0.720645 -3 1.10218 -3 1.5V4.5H-7.5C-8.29565 4.5 -9.05871 4.81607 -9.62132 5.37868C-10.1839 5.94129 -10.5 6.70435 -10.5 7.5V10.5C-10.5 12.4891 -9.70982 14.3968 -8.3033 15.8033C-7.60686 16.4997 -6.78007 17.0522 -5.87013 17.4291C-4.96018 17.806 -3.98491 18 -3 18H-2.31562C-1.43204 20.8002 0.252686 23.28 2.53032 25.1331C4.80795 26.9862 7.57866 28.1313 10.5 28.4269V33H6C5.60217 33 5.22064 33.158 4.93934 33.4393C4.65804 33.7206 4.5 34.1022 4.5 34.5C4.5 34.8978 4.65804 35.2794 4.93934 35.5607C5.22064 35.842 5.60217 36 6 36H18C18.3978 36 18.7794 35.842 19.0607 35.5607C19.342 35.2794 19.5 34.8978 19.5 34.5C19.5 34.1022 19.342 33.7206 19.0607 33.4393C18.7794 33.158 18.3978 33 18 33H13.5V28.4212C19.4888 27.8156 24.4575 23.6138 26.265 18H27C28.9891 18 30.8968 17.2098 32.3033 15.8033C33.7098 14.3968 34.5 12.4891 34.5 10.5V7.5C34.5 6.70435 34.1839 5.94129 33.6213 5.37868C33.0587 4.81607 32.2957 4.5 31.5 4.5ZM-3 15C-4.19347 15 -5.33807 14.5259 -6.18198 13.682C-7.02589 12.8381 -7.5 11.6935 -7.5 10.5V7.5H-3V13.5C-3 14 -2.97563 14.5 -2.92688 15H-3ZM24 13.3312C24 19.9912 18.5625 25.4513 12 25.5C8.8174 25.5 5.76515 24.2357 3.51472 21.9853C1.26428 19.7348 0 16.6826 0 13.5V3H24V13.3312ZM31.5 10.5C31.5 11.6935 31.0259 12.8381 30.182 13.682C29.3381 14.5259 28.1935 15 27 15H26.9062C26.9678 14.4459 26.9991 13.8888 27 13.3312V7.5H31.5V10.5Z" fill="#0D5229"/>
</svg>
