<svg width="48" height="48" viewBox="0 0 48 48" fill="none" xmlns="http://www.w3.org/2000/svg">
<path d="M39 8.99998C36.7171 8.99792 34.459 9.47241 32.37 10.3931C29.5387 5.63623 24.885 3.2681 24.6712 3.15748C24.4629 3.05319 24.233 2.9989 24 2.9989C23.767 2.9989 23.5371 3.05319 23.3287 3.15748C23.115 3.26623 18.4538 5.63623 15.63 10.3931C13.541 9.47241 11.2829 8.99792 9 8.99998C8.60218 8.99998 8.22064 9.15801 7.93934 9.43932C7.65804 9.72062 7.5 10.1022 7.5 10.5V18C7.50495 22.1148 9.04534 26.0798 11.8197 29.1187C14.594 32.1576 18.4026 34.0519 22.5 34.4306V41.0737L15.6713 37.6575C15.495 37.5693 15.303 37.5168 15.1064 37.5028C14.9098 37.4888 14.7123 37.5137 14.5254 37.576C14.3384 37.6384 14.1655 37.7369 14.0166 37.8661C13.8677 37.9952 13.7456 38.1524 13.6575 38.3287C13.5693 38.505 13.5168 38.697 13.5028 38.8936C13.4888 39.0902 13.5137 39.2876 13.5761 39.4746C13.6384 39.6616 13.7369 39.8345 13.8661 39.9834C13.9952 40.1323 14.1525 40.2543 14.3287 40.3425L23.3287 44.8425C23.5371 44.9468 23.767 45.001 24 45.001C24.233 45.001 24.4629 44.9468 24.6712 44.8425L33.6712 40.3425C34.0273 40.1644 34.2981 39.8523 34.4239 39.4746C34.5498 39.097 34.5205 38.6848 34.3425 38.3287C34.1645 37.9727 33.8523 37.7019 33.4746 37.576C33.097 37.4501 32.6848 37.4794 32.3288 37.6575L25.5 41.0737V34.4306C29.5974 34.0519 33.406 32.1576 36.1803 29.1187C38.9547 26.0798 40.4951 22.1148 40.5 18V10.5C40.5 10.1022 40.342 9.72062 40.0607 9.43932C39.7794 9.15801 39.3978 8.99998 39 8.99998ZM22.5 31.4175C19.2013 31.0445 16.1551 29.4709 13.9421 26.9964C11.729 24.5219 10.5038 21.3197 10.5 18V12.0825C13.7987 12.4554 16.8449 14.0291 19.0579 16.5036C21.271 18.978 22.4962 22.1803 22.5 25.5V31.4175ZM24 18.63C22.7381 15.8885 20.7517 13.5435 18.255 11.8481C20.0494 8.88748 22.755 6.99185 24 6.2231C25.2469 6.9881 27.9525 8.88372 29.745 11.8481C27.2487 13.544 25.2624 15.8888 24 18.63ZM37.5 18C37.4962 21.3197 36.271 24.5219 34.0579 26.9964C31.8449 29.4709 28.7987 31.0445 25.5 31.4175V25.5C25.5038 22.1803 26.729 18.978 28.9421 16.5036C31.1551 14.0291 34.2013 12.4554 37.5 12.0825V18Z" fill="#0D5229"/>
</svg>
